{"title":"Dangal (2016) Hindi HDRip x264 AAC { TaRa }","magnet":"magnet:?xt=urn:btih:113f39b4cc80ed9fb128e7f6ab516d7ed0ab1587&dn=Dangal+%282016%29+Hindi+HDRip+x264+AAC+%7B+TaRa+%7D&tr=udp%3A%2F%2Ftracker.leechers-paradise.org%3A6969&tr=udp%3A%2F%2Fzer0day.ch%3A1337&tr=udp%3A%2F%2Fopen.demonii.com%3A1337&tr=udp%3A%2F%2Ftracker.coppersurfer.tk%3A6969&tr=udp%3A%2F%2Fexodus.desync.com%3A6969","uploader":"SkTaRa","categoryP":"video","categoryS":"movies_dvdr","size":"1482527545","seeders":"12","leechers":"28","description":"===================================================================\r\nGeneral\r\nComplete name               : Dangal (2016) Hindi HDRip x264 AAC { TaRa }.mkv\r\nFormat                      : Matroska\r\nFormat version              : Version 4 / Version 2\r\nFile size                   : 1.38 GiB\r\nDuration                    : 2 h 34 min\r\nOverall bit rate            : 1 279 kb/s\r\n===================================================================\r\nVideo\r\nID                          : 1\r\nFormat                      : AVC\r\nFormat/Info                 : Advanced Video Codec\r\nFormat profile              : <a class=\"__cf_email__\" href=\"/cdn-cgi/l/email-protection\" data-cfemail=\"f8b0919f90b8b4cbd6c9\">[email&#xA0;protected]</a><script data-cfhash=\"f9e31\" type=\"text/javascript\">/* <![CDATA[ */!function(t,e,r,n,c,a,p){try{t=document.currentScript||function(){for(t=document.getElementsByTagName('script'),e=t.length;e--;)if(t[e].getAttribute('data-cfhash'))return t[e]}();if(t&&(c=t.previousSibling)){p=t.parentNode;if(a=c.getAttribute('data-cfemail')){for(e='',r='0x'+a.substr(0,2)|0,n=2;a.length-n;n+=2)e+='%'+('0'+('0x'+a.substr(n,2)^r).toString(16)).slice(-2);p.replaceChild(document.createTextNode(decodeURIComponent(e)),c)}p.removeChild(t)}}catch(u){}}()/* ]]> */</script>\r\nFormat settings, CABAC      : Yes\r\nFormat settings, ReFrames   : 8 frames\r\nCodec ID                    : V_MPEG4/ISO/AVC\r\nDuration                    : 2 h 34 min\r\nBit rate                    : 1 152 kb/s\r\nWidth                       : 720 pixels\r\nHeight                      : 304 pixels\r\nDisplay aspect ratio        : 2.35:1\r\nFrame rate mode             : Constant\r\nFrame rate                  : 25.000 FPS\r\nColor space                 : YUV\r\nChroma subsampling          : 4:2:0\r\nBit depth                   : 8 bits\r\nScan type                   : Progressive\r\nBits/(Pixel*Frame)          : 0.211\r\nStream size                 : 1.24 GiB (90%)\r\nTitle                       : .....::::: TaRa :::::.....\r\nLanguage                    : Hindi\r\nDefault                     : Yes\r\nForced                      : No\r\n===================================================================\r\nAudio\r\nID                          : 2\r\nFormat                      : AAC\r\nFormat/Info                 : Advanced Audio Codec\r\nFormat profile              : LC\r\nCodec ID                    : A_AAC\r\nDuration                    : 2 h 34 min\r\nBit rate                    : 126 kb/s\r\nChannel(s)                  : 2 channels\r\nChannel positions           : Front: L R\r\nSampling rate               : 44.1 kHz\r\nFrame rate                  : 43.066 FPS (1024 spf)\r\nCompression mode            : Lossy\r\nStream size                 : 139 MiB (10%)\r\nTitle                       : .....::::: TaRa :::::.....\r\nLanguage                    : Hindi\r\nDefault                     : Yes\r\nForced                      : No\r\n=================================================================== <a href=\"\nhttps://www.jiopic.com/image/Rpjr\" rel=\"nofollow\" target=\"_NEW\">\nhttps://www.jiopic.com/image/Rpjr</a> <a href=\"\nhttps://www.jiopic.com/image/RlfB\" rel=\"nofollow\" target=\"_NEW\">\nhttps://www.jiopic.com/image/RlfB</a> <a href=\"\nhttps://www.jiopic.com/image/R9eL\" rel=\"nofollow\" target=\"_NEW\">\nhttps://www.jiopic.com/image/R9eL</a> <a href=\"\nhttps://www.jiopic.com/image/RrOR\" rel=\"nofollow\" target=\"_NEW\">\nhttps://www.jiopic.com/image/RrOR</a> <a href=\"\nhttps://www.jiopic.com/image/Ra26\" rel=\"nofollow\" target=\"_NEW\">\nhttps://www.jiopic.com/image/Ra26</a> <a href=\"\nhttps://www.jiopic.com/image/Rbqo\" rel=\"nofollow\" target=\"_NEW\">\nhttps://www.jiopic.com/image/Rbqo</a> <a href=\"\nhttps://www.jiopic.com/image/RwP3\" rel=\"nofollow\" target=\"_NEW\">\nhttps://www.jiopic.com/image/RwP3</a> <a href=\"\nhttps://www.jiopic.com/image/m2rI\" rel=\"nofollow\" target=\"_NEW\">\nhttps://www.jiopic.com/image/m2rI</a> <a href=\"\nhttps://www.jiopic.com/image/mYZE\" rel=\"nofollow\" target=\"_NEW\">\nhttps://www.jiopic.com/image/mYZE</a> <a href=\"\nhttps://www.jiopic.com/image/mkDS\" rel=\"nofollow\" target=\"_NEW\">\nhttps://www.jiopic.com/image/mkDS</a> <a href=\"\nhttps://www.jiopic.com/image/mSfe\" rel=\"nofollow\" target=\"_NEW\">\nhttps://www.jiopic.com/image/mSfe</a> <a href=\"\nhttps://www.jiopic.com/image/msE2\" rel=\"nofollow\" target=\"_NEW\">\nhttps://www.jiopic.com/image/msE2</a> <a href=\"\nhttps://www.jiopic.com/image/m3e4\" rel=\"nofollow\" target=\"_NEW\">\nhttps://www.jiopic.com/image/m3e4</a> <a href=\"\nhttps://www.jiopic.com/image/m1Xi\" rel=\"nofollow\" target=\"_NEW\">\nhttps://www.jiopic.com/image/m1Xi</a> <a href=\"\nhttps://www.jiopic.com/image/m8qF\" rel=\"nofollow\" target=\"_NEW\">\nhttps://www.jiopic.com/image/m8qF</a> <a href=\"\nhttps://www.jiopic.com/image/mZ9z\" rel=\"nofollow\" target=\"_NEW\">\nhttps://www.jiopic.com/image/mZ9z</a> <a href=\"\nhttps://www.jiopic.com/image/mLPt\" rel=\"nofollow\" target=\"_NEW\">\nhttps://www.jiopic.com/image/mLPt</a> <a href=\"\nhttps://www.jiopic.com/image/m5Zv\" rel=\"nofollow\" target=\"_NEW\">\nhttps://www.jiopic.com/image/m5Zv</a> <a href=\"\nhttps://www.jiopic.com/image/mBDD\" rel=\"nofollow\" target=\"_NEW\">\nhttps://www.jiopic.com/image/mBDD</a> <a href=\"\nhttps://www.jiopic.com/image/mgy1\" rel=\"nofollow\" target=\"_NEW\">\nhttps://www.jiopic.com/image/mgy1</a> <a href=\"\nhttps://www.jiopic.com/image/mqsf\" rel=\"nofollow\" target=\"_NEW\">\nhttps://www.jiopic.com/image/mqsf</a>","last_updated":"2017-05-10T12:27:44.332Z","parsed":{"xt":"urn:btih:113f39b4cc80ed9fb128e7f6ab516d7ed0ab1587","dn":"Dangal (2016) Hindi HDRip x264 AAC { TaRa }","tr":["udp://exodus.desync.com:6969","udp://open.demonii.com:1337","udp://tracker.coppersurfer.tk:6969","udp://tracker.leechers-paradise.org:6969","udp://zer0day.ch:1337"],"infoHash":"113f39b4cc80ed9fb128e7f6ab516d7ed0ab1587","infoHashBuffer":{"type":"Buffer","data":[17,63,57,180,204,128,237,159,177,40,231,246,171,81,109,126,208,171,21,135]},"name":"Dangal (2016) Hindi HDRip x264 AAC { TaRa }","announce":["udp://exodus.desync.com:6969","udp://open.demonii.com:1337","udp://tracker.coppersurfer.tk:6969","udp://tracker.leechers-paradise.org:6969","udp://zer0day.ch:1337"],"urlList":[]}}